# xmcd
#
# Track frame offsets: 
#        150
#        13316
#        28819
#        43820
#        59694
#        80107
#        94794
#        103234
#        116225
#        138402
#        156319
#        172216
#        186848
#        200979
#        214158
#        229771
#        245061
#        260048
#        280508
#        295338
#        308443
#        326509
#        342675
#
# Disc length: 4762 seconds
#
# Revision: 0
# Processed by: cddbd v1.5.2PL0 Copyright (c) Steve Scherf et al.
# Submitted via: ExactAudioCopy v0.99pb5
#
DISCID=7a129817
DTITLE=Kno - Death is Silent
DYEAR=2010
DGENRE=Hip-Hop
TTITLE0=Death Is Silent
TTITLE1=If You Cry (feat. Natti)
TTITLE2=Loneliness (feat. Nemo Achida and Deacon the Villain)
TTITLE3=La Petite Mort (Come Die With Me)
TTITLE4=Rhythm of the Rain (feat. Thee Tom Hardy and Tunji)
TTITLE5=Spread Your Wings (feat. Deacon the Villain)
TTITLE6=Smile (They Brought Your Coffin In)
TTITLE7=Graveyard (feat. Sheisty Khrist)
TTITLE8=I Wish I Was Dead (feat. Tonedeff)
TTITLE9=They Told Me (feat. Deacon the Villain)
TTITLE10=When I Was Young (feat. Natti and Substantial)
TTITLE11=Not at the End (feat. Tunji)
TTITLE12=The New Day (Death Has No Meaning)
TTITLE13=Death Is Silent (instrumental)
TTITLE14=If You Cry (instrumental)
TTITLE15=Loneliness (instrumental)
TTITLE16=La Petite Mort (Come Die With Me) (instrumental)
TTITLE17=Rhythm of the Rain (instrumental)
TTITLE18=Spread Your Wings (instrumental)
TTITLE19=Graveyard (instrumental)
TTITLE20=They Told Me (instumental)
TTITLE21=When I Was Young (instrumental)
TTITLE22=Not at the End (instrumental)
EXTD=
EXTT0=
EXTT1=
EXTT2=
EXTT3=
EXTT4=
EXTT5=
EXTT6=
EXTT7=
EXTT8=
EXTT9=
EXTT10=
EXTT11=
EXTT12=
EXTT13=
EXTT14=
EXTT15=
EXTT16=
EXTT17=
EXTT18=
EXTT19=
EXTT20=
EXTT21=
EXTT22=
PLAYORDER=
